<svg t="1746776789183" class="icon" viewBox="0 0 1024 1024" version="1.1" xmlns="http://www.w3.org/2000/svg" p-id="7306" width="16" height="16"><path d="M248.685714 329.142857a43.885714 43.885714 0 0 1 12.873143-31.012571l219.428572-219.428572a43.885714 43.885714 0 0 1 62.098285 0l219.428572 219.428572a43.885714 43.885714 0 0 1 0 62.098285 43.885714 43.885714 0 0 1-62.098286 0L512 171.812571 323.584 360.155429A43.885714 43.885714 0 0 1 248.685714 329.142857zM775.314286 694.857143a43.885714 43.885714 0 0 1-12.873143 31.012571l-219.428572 219.428572a43.885714 43.885714 0 0 1-62.098285 0l-219.428572-219.428572a43.885714 43.885714 0 0 1 0-62.098285 43.885714 43.885714 0 0 1 62.098286 0L512 852.187429l188.416-188.342858A43.885714 43.885714 0 0 1 775.314286 694.857143z" p-id="7307"></path></svg>